<svg xmlns="http://www.w3.org/2000/svg" viewBox="0 0 405 405">
  <path fill-rule="evenodd" d="M18.7 1.4A28.4 28.4 0 0 0 2 19.1C.4 24.5.7 343 2.2 348.4A26 26 0 0 0 9 358c8.8 8.9 10.2 9.2 46.9 9 16.8 0 37.6.3 46.1.7l15.5.7.5 11.6c.8 17.2.4 16.9 24.7 22 17.9 3.6 18 3.6 25.2-9.7 8.2-15 7.2-14.4 21.7-14.4H202l6.1 11c6.8 12 9.6 15 14.6 15a218 218 0 0 0 31.4-7c3.9-2 4.5-4.1 5-16.9l.5-12.6 7.5-.2 20-.6c13.3-.3 15.7-1 22-6.3 6-5 7.6-10.3 8.4-25.9l.7-14 7.2-7.3c4-4 8-7.8 8.9-8.3 1.1-.6 4.5.4 12 3.6 11.2 4.9 14.1 5.4 17.7 2.9 3-2.1 19-26.8 20.3-31 1.4-5-1.2-9.6-10.9-19.5l-8.6-8.9 3.3-12.2c1.9-7.1 4-13 5.1-14 1-.8 6.8-2.6 12.9-3.8 12-2.5 16.5-4.7 18-8.6.6-1.4 1-9.4 1-17.7 0-21.2 0-21.3-19-27.3-5.9-1.9-11.2-4-11.7-4.6a103 103 0 0 1-6-25.1c.4-1.2 4.1-5 8.4-8.2 11.8-9 13.3-10.8 13.3-14.9 0-4-13.9-32.5-17.6-36.3-3.1-3.1-6.2-3-19.9 1.3L341 84.3l-4.5-4.4a168 168 0 0 1-10-11l-5.5-6.8 4-11c4.7-12.7 5-15.3 1.9-18.4a198.2 198.2 0 0 0-35-18.7c-3.7 0-6.3 2.4-13.8 13-7.6 10.8-7.5 10.7-15.8 9-4-.7-6-2.4-19.8-16.4A111.9 111.9 0 0 0 222.8 2c-4.2-1.9-7.5-2-102.3-2C41.2 0 21.8.4 18.7 1.5m8 24.9C25 27.4 25 38 25 182v155.8c0 .7 1.5 2.1 3.3 3.2 3.1 2 5.4 2 132.3 2 101.7 0 129.4-.3 130.7-1.3 1.4-1 1.6-11.1 1.8-115.8.2-105.8.1-114.9-1.4-117.2L290 106l-34.7-.3-34.8-.3-4.4-2.5c-8-4.6-8.1-4.7-8.1-43.7V25h-89.8c-70.3 0-90.2.3-91.5 1.3m203.8 28.3A73.6 73.6 0 0 0 232 81c1 2 2 2.1 19.5 2.1a259 259 0 0 0 18.5-.3c0-.6-31.5-32.5-35.2-35.6l-3.6-3.1-.7 10.6M317 190.3c0 39.5.2 71.8.4 71.8.9 0 10.9-25 13.2-33 5.5-18.8 7-43.5 3.9-61.6-2-11-8-29-13.4-40.4l-4-8.5v71.8m-145.8-59.9c-1.1 1.4-8.4 25-17.2 56-16.5 57.6-16.7 58.7-11.5 62 4.4 3 8.7 3.1 11.8.4 2.4-2 4.4-8.2 18.2-57.3 13-46.5 15.2-55.4 14.4-57.9-1.4-4-3.8-5.5-9.2-5.6-3.7 0-5 .5-6.5 2.4m-81 28.8a367 367 0 0 0-24 25.2 8.3 8.3 0 0 0-.8 5.4c.3 1.4 5 7 10.4 12.6 36.9 38.2 35.2 36.6 39 36.6 2.7 0 4.3-.9 7.9-4.5 6.7-6.7 6.3-7.5-12.8-27.5-8.8-9.2-16-17.4-16-18.3 0-.8 5.5-7.3 12.3-14.4 19-20 20.7-22 20.7-25 0-3.4-8.7-12.3-12-12.3-1.8 0-8.4 6-24.8 22.3m118.2-18c-3.7 3.7-4.4 5-4.4 8.2 0 3.6 1 4.8 17 21 12.9 13 17 17.7 16.3 18.9-.4.8-8.1 9.1-17 18.6-12.1 12.7-16.3 17.7-16.3 19.6 0 3 7.2 11.2 10.6 12 3.4.9 5.5-.7 16.7-12.4l22.4-23.3c10.6-10.9 12.3-13 12.3-15.9 0-2.9-2.6-5.8-23.8-27.1-27.1-27.3-26.4-27-33.8-19.5"/>
</svg>